<svg id="Capa_1" enable-background="new 0 0 512 512" height="512" viewBox="0 0 512 512" width="512" xmlns="http://www.w3.org/2000/svg"><g><path d="m0 45.941v243.837l143.43 176.281h225.14l143.43-176.281v-243.837zm482 30v40.776h-121.552c-30.865 0-55.977 25.111-55.977 55.977s25.111 55.977 55.977 55.977h121.552v40.776h-40.166c-52.602 0-95.396 42.795-95.396 95.396v71.216h-180.876v-71.216c0-52.602-42.795-95.396-95.396-95.396h-40.166v-40.777h121.552c30.865 0 55.977-25.111 55.977-55.977s-25.111-55.977-55.977-55.977h-121.552v-40.775zm-121.552 122.729c-14.323 0-25.977-11.653-25.977-25.977s11.653-25.977 25.977-25.977h18.405v51.953h-18.405zm48.406-51.953h73.146v51.953h-73.146zm56.604 152.729-89.02 109.41v-44.014c0-36.06 29.337-65.396 65.396-65.396zm-329.896 109.411-89.02-109.41h23.624c36.06 0 65.396 29.337 65.396 65.396zm15.99-262.14c14.323 0 25.977 11.653 25.977 25.977s-11.653 25.977-25.977 25.977h-18.405v-51.953h18.405zm-48.406 51.953h-73.146v-51.953h73.146z"/></g></svg>