<svg id="Capa_1" enable-background="new 0 0 512 512" height="512" viewBox="0 0 512 512" width="512" xmlns="http://www.w3.org/2000/svg"><g fill="white"><path d="m389.562 378.392v54.745l105.895-130.15h-30.491c-41.577 0-75.404 33.826-75.404 75.405z"/><path d="m0 131.246h85.986v62.155h-85.986z"/><path d="m47.033 302.987h-30.491l105.895 130.15v-54.745c.001-41.579-33.826-75.405-75.404-75.405z"/><path d="m426.014 131.246h85.986v62.155h-85.986z"/><path d="m0 51.66v49.586h138.55c33.678 0 61.077 27.399 61.077 61.078s-27.399 61.078-61.077 61.078h-138.55v49.586h47.033c58.12 0 105.404 47.284 105.404 105.404v81.949h207.125v-81.949c0-58.12 47.284-105.404 105.404-105.404h47.034v-49.586h-138.55c-33.678 0-61.077-27.399-61.077-61.078s27.399-61.078 61.077-61.078h138.55v-49.586z"/><path d="m169.627 162.323c0-17.136-13.941-31.078-31.077-31.078h-22.563v62.155h22.563c17.136.001 31.077-13.941 31.077-31.077z"/><path d="m342.373 162.323c0 17.136 13.941 31.078 31.077 31.078h22.563v-62.155h-22.563c-17.136 0-31.077 13.941-31.077 31.077z"/></g></svg>
